**ABCDEFGHIJKLMNOPQRSTUVWXYZabcdefghijklmnopqrstuvwxyz**************************
**PARASOLID !"#$%&'()*+,-./:;<=>?@[\]^_`{|}~0123456789**************************
**PART1;
MC=AMD64;
MC_MODEL=AMD64 Family 23 Model 96 Stepping 1, AuthenticAMD;
MC_ID=unknown;
OS=Windows_NT;
OS_RELEASE=unknown;
FRU=Parasolid Version 31.1, build 290,  3- 9-2020;
APPL=SOLIDWORKS 2020-2020128;
SITE=;
USER=unknown;
FORMAT=text;
GUISE=transmit;
KEY=Peça2;
FILE=Peça2.x_t;
DATE=Sat May 20 09:35:24 2023;
**PART2;
SCH=SCH_3101290_31100;
USFLD_SIZE=0;
**PART3;
**END_OF_HEADER*****************************************************************
T51 : TRANSMIT FILE created by modeller version 310129023 SCH_3101290_31100_1300
6222 0 12 34 CCCCCCI4 mesh1006 0 I8 polyline1008 0 CCCCCCCDI5 owner1040 0 CCCCCC
I13 boundary_mesh1006 0 I17 boundary_polyline1008 0 CCCA16 index_map_offset0 0 1
 dA9 index_map82 0 A17 node_id_index_map82 0 A20 schema_embedding_map82 0 A5 chi
ld12 0 A14 lowest_node_id0 0 1 dA16 mesh_offset_data206 0 Z1 2297 2 3 0 0 0 0 0
 0 1e3 1e-8 0 4 0 1 0 1 1 5 6 7 8 0 0 9 10 11 0 0 0 0 0 0 0 81 255 2 2 2274 12 1
 13 0 0 0 0 14 70 11 CI9 list_type0 0 1 uI10 notransmit0 0 1 lCCCDCCDI12 finger_
index0 0 1 dI12 finger_block1012 0 CZ3 0 4 T1 0 0 10 20 1 15 15 13 255 5 120 0 1
 0 16 0 0 17 0 51 255 6 1152 0 18 19 0 0 +.01 .01 0 0 0 1 .01 1 0 0 31 255 7 194
0 0 20 21 0 0 --.01025 .01025 .02 0 0 1 1 0 0 .0015 29 255 8 1118 0 11 22 0 .02
 .01 0 19 8 CCCCCCCA5 owner12 0 Z9 40 0 1 17 0 23 V0 16 255 10 1131 0 ?24 0 25 2
6 0 0 1 18 255 11 1116 0 24 0 27 8 ?1 17 255 24 0 28 29 30 11 31 10 0 32 +18 27
 1113 0 33 11 34 22 ?1 17 33 0 35 32 36 27 37 25 0 38 -18 34 1104 0 39 27 40 41
 ?1 29 22 1115 0 27 41 8 .02 .01 -.003 29 41 1106 0 34 42 22 .01 0 -.003 29 42 1
033 0 40 43 41 .02 .0105 0 18 40 1031 0 44 34 45 42 ?1 29 43 1030 0 45 46 42 .02
 .0105 -.003 18 45 1028 0 47 40 48 43 ?1 29 46 936 0 48 49 43 -.02 .01 -.003 18
 48 934 0 50 45 51 46 ?1 29 49 933 0 51 52 46 -.02 .01 2449293598294705e-33 18 5
1 931 0 53 48 54 49 ?1 29 52 863 0 54 55 49 -.01 .0205 -.003 18 54 861 0 56 51 5
7 52 ?1 29 55 851 0 57 58 52 -.02 .0105 2449293598294705e-33 18 57 849 0 59 54 6
0 55 ?1 29 58 848 0 60 61 55 -.02 .0105 -.003 18 60 846 0 62 57 63 58 ?1 29 61 1
246 0 63 64 58 -.01 0 -.003 18 63 1207 0 65 60 66 61 ?1 29 64 1248 0 66 67 61 -.
01 0 0 18 66 1206 0 68 63 69 64 ?1 29 67 1249 0 69 70 64 .01 -1734723475976805e-
33 0 18 69 1205 0 71 66 72 67 ?1 29 70 1374 0 72 73 67 .01 .0205 -.003 18 72 132
4 0 74 69 75 70 ?1 29 73 1378 0 75 76 70 -.01 .0205 0 18 75 1317 0 77 72 78 73 ?
1 29 76 1379 0 78 0 73 .01 .0205 0 18 78 1320 0 79 75 0 76 ?1 17 79 0 80 74 77 7
8 81 82 0 83 +15 255 80 1337 0 77 84 0 17 74 0 80 56 79 72 85 86 0 87 +17 77 0 8
0 79 56 75 88 89 0 81 +17 81 0 28 59 83 75 79 82 0 90 -16 82 1302 0 ?79 91 92 93
 0 0 1 17 83 0 28 81 29 78 44 94 0 85 +15 28 624 0 83 95 0 17 29 0 28 83 24 40 9
6 97 0 0 -17 44 0 98 99 85 40 83 94 0 100 -16 94 1040 0 ?83 101 102 103 0 0 1 17
 85 0 98 44 104 78 74 86 0 0 -15 98 1022 0 85 105 0 17 104 0 98 85 99 72 47 101
 0 0 -16 86 1021 0 ?74 102 106 107 0 0 1 16 102 1034 0 ?100 94 86 108 0 0 1 16 1
06 961 0 ?109 86 110 111 0 0 1 30 255 107 1023 0 86 111 108 0 +.01 .0205 -.003 0
 0 -1 31 111 963 0 106 112 107 0 --.01 .01 1224646799147352e-33 -122464679914735
2e-31 0 -1 -1 0 1224646799147352e-31 .01 30 108 1036 0 102 107 103 0 -.02 .0105
 0 0 0 -1 31 103 1042 0 94 108 113 0 -.01 .0105 -1301042606982604e-33 -122464679
9147352e-31 0 -1 -1 0 1224646799147352e-31 .01 31 113 1049 0 101 103 114 0 -.01
 .0105 -.003 0 0 1 1 0 0 .01 16 101 1047 0 ?47 115 94 113 0 0 1 30 114 1109 0 11
5 113 116 0 +.01 0 0 0 0 1 16 115 1107 0 ?71 117 101 114 0 0 1 30 116 1121 0 117
 114 118 0 -.02 .01 0 0 0 1 16 117 1119 0 ?38 25 115 116 0 0 1 31 118 1127 0 25
 116 26 0 -.01 .01 -.003 0 0 1 1 0 0 .01 16 25 1125 0 ?37 10 117 118 0 0 1 31 26
 1133 0 10 118 21 0 -.01 .01 -1224646799147352e-33 -1224646799147352e-31 0 -1 -1
 0 1224646799147352e-31 .01 31 21 1932 0 119 26 7 0 -.01025 .01025 .02 0 0 1 1 0
 0 .0015 16 119 1999 0 ?120 20 121 21 0 0 1 17 120 0 122 120 120 0 123 119 0 0 +
16 20 1971 0 ?124 125 119 7 0 0 1 16 121 1968 0 ?126 119 127 128 0 0 1 17 126 0
 129 126 126 0 130 121 0 0 +16 127 1996 0 ?131 121 132 133 0 0 1 31 128 2034 0 1
21 134 133 0 +-.01025 .01025 .02 0 0 1 1 0 0 .0025 31 134 2139 0 135 136 128 0 +
.01025 .01025 .008 0 0 1 1 0 0 .0015 31 133 2032 0 127 128 137 0 +.01025 .01025
 .02 0 0 1 1 0 0 .0025 31 137 1585 0 125 133 138 0 +.01025 .01025 .005 0 0 1 1 0
 0 .0025 16 125 1539 0 ?139 140 20 137 0 0 1 31 138 1583 0 140 137 141 0 +.01025
 .01025 .005 0 0 1 1 0 0 .003 16 140 1536 0 ?142 143 125 138 0 0 1 31 141 1505 0
 143 138 144 0 +-.01025 .01025 .005 0 0 1 1 0 0 .0025 16 143 1459 0 ?145 92 140
 141 0 0 1 31 144 1503 0 92 141 93 0 +-.01025 .01025 .005 0 0 1 1 0 0 .003 16 92
 1456 0 ?146 82 143 144 0 0 1 31 93 1369 0 82 144 147 0 +0 .0305 0 0 0 1 1 0 0 .
01414213562373106 31 147 1364 0 91 93 148 0 +0 .0305 -.003 0 0 1 1 0 0 .01414213
562373106 16 91 1293 0 ?87 149 82 147 0 0 1 31 148 1242 0 149 147 150 0 +5204170
42793042e-31 -.01 0 0 0 1 -1 0 0 .01414213562373102 16 149 1201 0 ?68 151 91 148
 0 0 1 31 150 1239 0 151 148 152 0 +520417042793042e-31 -.01 -.003 0 0 1 1 0 0 .
01414213562373102 16 151 1188 0 ?153 154 149 150 0 0 1 31 152 580 0 155 150 156
 0 +0 .01025 -.003 0 0 1 1 0 0 .003 16 155 553 0 ?157 158 154 152 0 0 1 31 156 5
79 0 154 152 159 0 +0 .01025 0 0 0 1 1 0 0 .003 16 154 556 0 ?160 155 151 156 0
 0 1 30 159 116 0 158 156 161 0 +-.02 .03 2449293598294705e-33 0 -1 0 16 158 850
 0 ?162 163 155 159 0 0 1 30 161 117 0 163 159 164 0 +-.02 .03 -.003 0 -1 0 16 1
63 847 0 ?165 166 158 161 0 0 1 30 164 118 0 166 161 167 0 +.02 .03 -.003 0 -1 0
 16 166 1029 0 ?168 97 163 164 0 0 1 30 167 119 0 97 164 169 0 +.02 .03 0 0 -1 0
 16 97 1032 0 ?96 170 166 167 0 0 1 31 169 231 0 170 167 171 0 --.01025 .01025 0
 -1224646799147352e-31 0 -1 -1 0 1224646799147352e-31 .003 16 170 228 0 ?172 173
 97 169 0 0 1 31 171 266 0 173 169 174 0 -.01025 .01025 0 -1224646799147352e-31
 0 -1 -1 0 1224646799147352e-31 .003 16 173 263 0 ?175 176 170 171 0 0 1 30 174
 854 0 176 171 177 0 +-.02 .0105 2449293598294705e-33 0 0 -1 16 176 852 0 ?178 8
9 173 174 0 0 1 30 177 866 0 89 174 179 0 --.01 .0205 2449293598294705e-33 0 0 -
1 16 89 864 0 ?77 180 176 177 0 0 1 31 179 873 0 180 177 181 0 --.01 .0105 12246
46799147352e-33 -1224646799147352e-31 0 -1 -1 0 1224646799147352e-31 .01 16 180
 871 0 ?59 182 89 179 0 0 1 31 181 880 0 182 179 183 0 --.01 .0105 -.003 0 0 1 1
 0 0 .01 16 182 878 0 ?184 185 180 181 0 0 1 30 183 939 0 185 181 186 0 +-.02 .0
1 2449293598294705e-33 0 0 1 16 185 937 0 ?187 188 182 183 0 0 1 30 186 951 0 18
8 183 112 0 --.01 0 0 0 0 1 16 188 949 0 ?65 110 185 186 0 0 1 31 112 957 0 110
 186 111 0 --.01 .01 -.003 0 0 1 1 0 0 .01 16 110 955 0 ?50 106 188 112 0 0 1 17
 50 0 189 190 153 48 191 110 0 192 +15 189 643 0 184 193 0 17 190 0 189 184 50 6
0 165 163 0 0 -17 153 0 189 50 37 63 39 151 0 191 +17 191 0 194 195 192 63 50 11
0 0 0 -17 192 0 194 191 53 48 187 185 0 165 -15 194 938 0 192 196 0 17 53 0 194
 192 195 51 109 106 0 187 -17 187 0 197 198 165 51 192 185 0 162 +17 165 0 197 1
87 178 48 190 163 0 0 +15 197 633 0 165 199 0 17 178 0 197 165 198 60 200 176 0
 190 +17 198 0 197 178 187 57 162 158 0 0 -17 200 0 201 90 62 57 178 176 0 198 -
15 201 853 0 200 202 0 17 90 0 201 88 200 75 59 180 0 0 -17 62 0 201 200 88 60 1
84 182 0 178 -17 88 0 201 62 90 54 77 89 0 0 -17 184 0 189 87 190 54 62 182 0 88
 +17 87 0 189 47 184 72 56 91 0 104 +17 47 0 189 168 87 45 104 101 0 99 +17 56 0
 80 77 74 54 87 91 0 184 -17 168 0 189 37 47 27 203 166 0 0 +17 99 0 98 104 44 4
5 100 102 0 203 -17 100 0 204 96 203 40 99 102 0 29 +17 203 0 204 100 38 45 168
 166 0 0 -15 204 106 0 96 205 0 17 38 0 204 203 96 27 32 117 0 168 +17 96 0 204
 38 100 11 29 97 0 0 +17 32 0 35 31 33 11 38 117 0 96 -15 35 1108 0 36 18 0 17 3
1 0 35 36 32 69 24 10 0 0 -17 36 0 35 33 31 34 71 115 0 0 -17 71 0 206 68 39 69
 36 115 0 30 +15 206 1217 0 71 207 0 17 68 0 206 65 71 66 30 149 0 109 +17 39 0
 206 71 65 34 153 151 0 37 -17 30 0 28 24 109 69 68 149 0 31 -17 109 0 28 30 162
 66 53 106 0 195 +17 162 0 28 109 59 51 198 158 0 0 +17 195 0 194 53 191 66 65 1
88 0 0 -17 65 0 206 39 68 63 195 188 0 153 +17 59 0 28 162 81 57 90 180 0 200 +1
7 37 0 189 153 168 34 33 25 0 36 +14 255 207 1214 208 ?84 209 206 5 210 -0 0 84
 209 23 81 1 208 2275 211 207 212 0 0 213 214 14 84 1334 213 ?215 207 80 5 216 -
0 0 215 207 23 14 209 559 217 ?207 205 218 5 219 -0 0 207 205 23 51 210 1235 0 2
07 216 219 0 +520417042793042e-31 -.01 -.004 0 0 1 .01414213562373102 1 0 0 13 2
3 41 0 0 0 0 0 0 9 16 14 16 1958 220 ?221 0 222 5 223 +0 0 221 0 23 81 1 220 227
8 211 16 224 0 217 225 226 14 221 1949 225 ?227 16 228 5 229 +0 0 227 16 23 15 2
22 1493 0 145 16 230 51 223 491 0 16 219 229 0 +-.01025 .01025 .016 0 0 1 .0025
 1 0 0 51 219 576 0 209 210 223 0 +0 .01025 -.003 0 0 1 .003 1 0 0 51 229 487 0
 221 223 231 0 +.01025 .01025 .016 0 0 1 .0025 1 0 0 51 231 367 0 232 229 233 0
 +-.01025 .01025 .01 0 0 1 .0015 1 0 0 14 232 1941 234 ?235 236 237 5 231 -0 0 2
35 236 23 51 233 364 0 236 231 238 0 +.01025 .01025 .01 0 0 1 .0015 1 0 0 14 236
 1933 239 ?232 240 241 5 233 -0 0 232 240 23 51 238 290 0 227 233 242 0 -.01025
 .01025 .02 0 0 -1 .003 -1 0 0 14 227 1529 243 ?244 221 245 5 238 -0 0 244 221 2
3 51 242 256 0 244 238 246 0 --.01025 .01025 .02 0 0 -1 .003 -1 0 0 14 244 1449
 247 ?18 227 248 5 242 -0 0 18 227 23 50 255 246 110 0 95 242 249 0 +0 .03 0 -12
24646799147352e-31 0 -1 -1 0 1224646799147352e-31 14 95 626 250 ?205 199 251 5 2
46 -0 0 205 199 23 50 249 111 0 199 246 252 0 +-.02 .03 2449293598294705e-33 1 0
 0 0 0 -1 14 199 635 253 ?95 193 197 5 249 -0 0 95 193 23 50 252 112 0 193 249 2
54 0 +.02 .03 -.003 0 0 1 1 0 0 14 193 645 255 ?199 202 256 5 252 -0 0 199 202 2
3 50 254 113 0 205 252 257 0 +.02 .03 0 -1 0 0 0 0 1 14 205 107 258 ?209 95 204
 5 254 -0 0 209 95 23 51 257 899 0 202 254 259 0 +-.01 .0105 2449293598294705e-3
3 0 0 1 .01 1 0 0 14 202 896 260 ?193 196 201 5 257 +0 0 193 196 23 51 259 982 0
 196 257 19 0 +-.01 .01 2449293598294705e-33 0 0 1 .01 1 0 0 14 196 979 261 ?202
 105 194 5 259 +0 0 202 105 23 51 19 1067 0 105 259 6 0 +.01 .0105 -.003 0 0 -1
 .01 -1 0 0 14 105 1064 262 ?196 18 98 5 19 +0 0 196 18 23 81 1 262 2290 211 105
 263 0 261 264 265 14 18 1149 264 ?105 244 35 5 6 +0 0 105 244 23 81 1 264 2291
 211 18 266 0 262 267 268 80 255 1 211 269 270 9000 1 1 1 1 1 1 1 1 0 FFFFTFTFFF
FFFF1 81 1 266 2199 271 18 0 264 272 263 273 81 1 267 2292 211 274 275 0 264 276
 277 82 255 1 268 -345571183 14 274 2000 267 ?240 278 279 5 280 +0 0 240 278 23
 81 1 275 2212 271 274 0 267 281 282 283 81 1 276 2293 211 240 282 0 267 284 285
 82 1 277 -621870930 14 240 1972 276 ?236 274 129 5 286 +0 0 236 274 23 81 1 282
 2213 271 240 0 276 275 287 288 81 1 284 2294 211 235 289 0 276 290 291 82 1 285
 -620232530 14 235 2096 284 ?292 232 293 5 294 +0 0 292 232 23 81 1 289 2216 271
 235 0 284 295 296 297 81 1 290 2295 211 292 296 0 284 298 299 82 1 291 17054435
06 14 292 2120 290 ?0 235 300 5 301 +0 0 0 235 23 81 1 296 2217 271 292 0 290 28
9 0 302 81 1 298 2296 211 278 281 0 290 303 304 82 1 299 1709441202 14 278 1561
 298 ?274 215 305 5 306 +0 0 274 215 23 81 1 281 2211 271 278 0 298 307 275 308
 81 1 303 2297 211 215 307 0 298 0 309 82 1 304 -964427620 14 215 1481 303 ?278
 84 310 5 311 +0 0 278 84 23 81 1 307 2210 271 215 0 303 312 281 313 82 1 309 -1
911684967 80 1 271 0 314 8001 0 0 0 0 3 5 0 0 0 FFFFTFTFFFFFFF2 81 1 312 2209 27
1 84 0 213 212 307 315 83 255 3 313 .792156862745098 .819607843137255 .933333333
333333 81 1 213 2276 211 84 312 0 208 217 316 81 1 212 2208 271 207 0 208 317 31
2 318 83 3 315 .792156862745098 .819607843137255 .933333333333333 81 1 317 2207
 271 209 0 217 319 212 320 83 3 318 .792156862745098 .819607843137255 .933333333
333333 81 1 217 2277 211 209 317 0 213 220 321 81 1 319 2206 271 205 0 258 322 3
17 323 83 3 320 .792156862745098 .819607843137255 .933333333333333 81 1 258 2287
 211 205 319 0 255 260 324 81 1 322 2205 271 95 0 250 325 319 326 83 3 323 .7921
56862745098 .819607843137255 .933333333333333 81 1 250 2284 211 95 322 0 247 253
 327 81 1 325 2204 271 199 0 253 328 322 329 83 3 326 .792156862745098 .81960784
3137255 .933333333333333 81 1 253 2285 211 199 325 0 250 255 330 81 1 328 2203 2
71 193 0 255 331 325 332 83 3 329 .792156862745098 .819607843137255 .93333333333
3333 81 1 255 2286 211 193 328 0 253 258 333 81 1 331 2202 271 202 0 260 334 328
 335 83 3 332 .792156862745098 .819607843137255 .933333333333333 81 1 260 2288 2
11 202 331 0 258 261 336 81 1 334 2201 271 196 0 261 263 331 337 83 3 335 .79215
6862745098 .819607843137255 .933333333333333 81 1 261 2289 211 196 334 0 260 262
 338 81 1 263 2200 271 105 0 262 266 334 339 83 3 337 .792156862745098 .81960784
3137255 .933333333333333 83 3 339 .792156862745098 .819607843137255 .93333333333
3333 82 1 338 -931856239 82 1 336 -1160773484 82 1 333 -1448673132 82 1 330 -144
9721718 81 1 247 2283 211 244 272 0 243 250 340 82 1 327 -1450573676 81 1 272 21
98 271 244 0 247 341 266 342 81 1 243 2282 211 227 341 0 239 247 343 82 1 340 -1
905131367 81 1 341 2197 271 227 0 243 344 272 345 81 1 239 2281 211 236 287 0 23
4 243 346 82 1 343 -957874020 81 1 287 2214 271 236 0 239 282 295 347 81 1 234 2
280 211 232 295 0 225 239 348 82 1 346 -622985038 81 1 295 2215 271 232 0 234 28
7 289 349 81 1 225 2279 211 221 344 0 220 234 350 82 1 348 -621346638 81 1 344 2
196 271 221 0 225 224 341 351 82 1 350 -619708242 81 1 224 2195 271 16 0 220 0 3
44 352 83 3 351 .792156862745098 .819607843137255 .933333333333333 83 3 352 .792
156862745098 .819607843137255 .933333333333333 83 3 349 .792156862745098 .819607
843137255 .933333333333333 83 3 347 .792156862745098 .819607843137255 .933333333
333333 83 3 345 .792156862745098 .819607843137255 .933333333333333 83 3 342 .792
156862745098 .819607843137255 .933333333333333 82 1 324 482017422 82 1 321 -1538
523005 82 1 316 -918224748 79 255 15 314 SDL/TYSA_COLOUR15 310 1483 0 353 215 35
4 50 311 1498 0 215 306 216 0 +-.01025 .01025 .005 0 0 1 1 0 0 50 306 1578 0 278
 280 311 0 +.01025 .01025 .005 0 0 1 1 0 0 51 216 1357 0 84 311 210 0 +0 .0305 -
.004 0 0 1 .01414213562373106 1 0 0 50 280 2025 0 274 286 306 0 +.01025 .01025 .
02 0 0 1 1 0 0 50 286 2028 0 240 301 280 0 +-.01025 .01025 .02 0 0 1 1 0 0 50 30
1 2132 0 292 294 286 0 +.01025 .01025 .008 0 0 1 1 0 0 50 294 2135 0 235 0 301 0
 +-.01025 .01025 .008 0 0 1 1 0 0 17 353 0 310 353 353 0 145 143 0 0 -15 354 148
4 0 146 215 0 17 146 0 354 146 146 0 355 92 0 0 +17 355 0 356 355 355 0 146 92 0
 0 -15 356 1447 0 355 244 0 17 145 0 222 145 145 0 353 143 0 0 +83 3 308 .792156
862745098 .819607843137255 .933333333333333 15 305 1563 0 357 278 358 17 357 0 3
05 357 357 0 139 125 0 0 -15 358 1564 0 142 278 0 17 142 0 358 142 142 0 359 140
 0 0 +17 359 0 360 359 359 0 142 140 0 0 -15 360 1527 0 359 227 0 17 139 0 228 1
39 139 0 357 125 0 0 +15 228 1573 0 139 221 361 15 361 1946 0 362 221 0 17 362 0
 361 362 362 0 131 127 0 0 -17 131 0 279 131 131 0 362 127 0 0 +15 279 2002 0 13
1 274 122 15 122 2003 0 120 274 0 83 3 302 .792156862745098 .819607843137255 .93
3333333333333 15 300 2122 0 363 292 0 17 363 0 300 363 363 0 364 135 0 0 +17 364
 0 365 364 364 0 363 135 0 0 -16 135 2104 0 ?363 132 0 134 0 0 1 16 132 2080 0 ?
366 127 135 136 0 0 1 17 366 0 293 366 366 0 367 132 0 0 +31 136 2141 0 132 0 13
4 0 +-.01025 .01025 .008 0 0 1 1 0 0 .0015 15 293 2098 0 366 235 0 17 367 0 368
 367 367 0 366 132 0 0 -15 368 2095 0 367 232 0 15 365 2119 0 364 236 0 83 3 297
 .792156862745098 .819607843137255 .933333333333333 83 3 288 .792156862745098 .8
19607843137255 .933333333333333 15 129 1974 0 126 240 369 15 369 1975 0 124 240
 0 17 124 0 369 124 124 0 370 20 0 0 +17 370 0 237 370 370 0 124 20 0 0 -15 237
 1939 0 370 232 368 83 3 283 .792156862745098 .819607843137255 .933333333333333
 83 3 273 .792156862745098 .819607843137255 .933333333333333 79 14 270 SWEntUnch
anged82 1 265 -594083692 15 256 547 0 157 193 189 17 157 0 256 157 157 0 371 155
 0 0 +17 371 0 218 371 371 0 157 155 0 0 -15 218 562 0 371 209 372 15 372 563 0
 160 209 0 17 160 0 372 160 160 0 373 154 0 0 +17 373 0 374 373 373 0 160 154 0
 0 -15 374 540 0 373 95 28 15 251 230 0 375 95 376 17 375 0 251 375 375 0 172 17
0 0 0 -15 376 265 0 377 95 374 17 377 0 376 377 377 0 175 173 0 0 -17 175 0 245
 175 175 0 377 173 0 0 +15 245 281 0 175 227 360 17 172 0 248 172 172 0 375 170
 0 0 +15 248 247 0 172 244 356 15 241 1931 0 123 236 365 17 123 0 241 123 123 0
 120 119 0 0 -15 230 1955 0 130 16 0 17 130 0 230 130 130 0 126 121 0 0 -82 1 22
6 -618987346 82 1 214 1937703057 19 17 121 0 1 0 9 5 S0 74 4 CI16 index_map_offs
et0 0 1 dCCZ20 15 10 0 0 303 378 379 380 381 382 383 13 296 2 0 0 0 0 0 0 0 0 0
 0 81 5 378 235 384 1 0 379 0 0 385 0 0 0 0 81 2 379 1818 386 1 378 380 0 0 0 38
7 81 2 380 1826 388 1 379 381 0 0 0 389 81 2 381 1859 390 1 380 382 0 0 391 0 81
 2 382 1927 392 1 381 383 0 0 0 393 81 1 383 2158 394 1 382 13 0 0 395 81 2 13 2
192 396 1 383 2 0 0 0 0 80 2 396 397 398 9000 0 0 0 0 3 5 0 0 0 FFTFFFFFFFFFFF9
 1 79 16 398 BODY_RECIPE_200180 1 394 399 400 9000 1 1 1 1 1 1 1 1 0 FFTFFFFFFFF
FFF1 82 1 395 791 79 10 400 BODY_MATCH80 2 392 401 402 9000 0 0 0 0 3 5 0 0 0 FF
TFFFFFFFFFFF9 1 82 1 393 1 79 24 402 BODY_IN_LIGHTWEIGHT_PERM80 2 390 403 404 80
04 0 0 0 0 3 5 0 0 0 FFTFFFFFFFFFFF2 3 83 1 391 1 79 16 404 SDL/TYSA_DENSITY80 2
 388 405 406 9000 0 0 0 0 3 5 0 0 0 FFTFFFFFFFFFFF9 1 82 1 389 203 79 30 406 LAS
T_BODY_MODIFYING_FEATURE_ID80 2 386 407 408 9000 0 0 0 0 3 5 0 0 0 FFTFFFFFFFFFF
F9 1 82 1 387 145 79 19 408 ENT_TIME_STAMP_200180 5 384 409 410 9000 0 0 0 0 3 6
 0 0 0 FFTTTTTTFTTFTT2 2 2 2 2 83 1 385 1 79 19 410 BODY_SCALING_FACTOR80 2 12 4
11 412 9000 0 0 0 0 3 5 0 0 0 FFTFFFFFFFFFFF9 1 82 1 14 116 79 12 412 ATOM_ID_20
011 0 
