**ABCDEFGHIJKLMNOPQRSTUVWXYZabcdefghijklmnopqrstuvwxyz**************************
**PARASOLID !"#$%&'()*+,-./:;<=>?@[\]^_`{|}~0123456789**************************
**PART1;
MC=AMD64;
MC_MODEL=AMD64 Family 23 Model 96 Stepping 1, AuthenticAMD;
MC_ID=unknown;
OS=Windows_NT;
OS_RELEASE=unknown;
FRU=Parasolid Version 31.1, build 290,  3- 9-2020;
APPL=SOLIDWORKS 2020-2020128;
SITE=;
USER=unknown;
FORMAT=text;
GUISE=transmit;
KEY=teste 1;
FILE=teste 1.x_t;
DATE=Sat May 20 09:34:24 2023;
**PART2;
SCH=SCH_3101290_31100;
USFLD_SIZE=0;
**PART3;
**END_OF_HEADER*****************************************************************
T51 : TRANSMIT FILE created by modeller version 310129023 SCH_3101290_31100_1300
6222 0 12 34 CCCCCCI4 mesh1006 0 I8 polyline1008 0 CCCCCCCDI5 owner1040 0 CCCCCC
I13 boundary_mesh1006 0 I17 boundary_polyline1008 0 CCCA16 index_map_offset0 0 1
 dA9 index_map82 0 A17 node_id_index_map82 0 A20 schema_embedding_map82 0 A5 chi
ld12 0 A14 lowest_node_id0 0 1 dA16 mesh_offset_data206 0 Z1 7211 2 3 0 0 0 0 0
 0 1e3 1e-8 0 4 0 1 0 1 1 5 6 7 8 0 0 9 10 11 0 0 0 0 0 0 0 81 255 2 2 7153 12 1
 13 0 0 0 0 14 70 11 CI9 list_type0 0 1 uI10 notransmit0 0 1 lCCCDCCDI12 finger_
index0 0 1 dI12 finger_block1012 0 CZ3 0 4 T1 0 0 10 20 1 15 15 13 255 5 99 0 1
 0 16 0 0 17 0 51 255 6 6606 0 16 18 0 0 +-.0527 .002 .040375 0 1 0 .005 0 0 1 3
1 255 7 6583 0 10 19 0 0 --.0527 -.002 .040375 0 1 0 0 0 1 .005 29 255 8 6571 0
 11 20 0 -.0527 -.002 .045375 19 8 CCCCCCCA5 owner12 0 Z9 33 0 1 17 0 21 V0 16 2
55 10 6581 0 ?22 0 23 7 0 0 1 18 255 11 6569 0 24 0 25 8 ?1 17 255 24 0 26 27 28
 11 22 10 0 29 -18 25 6557 0 22 11 30 20 ?1 17 22 0 31 32 33 25 24 10 0 28 +18 3
0 6325 0 34 25 35 36 ?1 29 20 6559 0 25 36 8 -.0577 -.002 .040375 29 36 6327 0 3
0 37 20 .0488928108611693 .002 -.045375 29 37 6024 0 35 38 36 -.0493928108611693
 .006 -.045375 18 35 6022 0 39 30 40 37 ?1 29 38 5868 0 40 41 37 .0532 .002 .045
375 18 40 5866 0 42 35 43 38 ?1 29 41 5835 0 43 44 38 .0577 .006 .04255444947177
035 18 43 5833 0 45 40 46 41 ?1 29 44 5832 0 46 47 41 .0577 .002 .03819555052822
965 18 46 5830 0 48 43 49 44 ?1 29 47 5829 0 49 50 44 .0577 .002 .04255444947177
035 18 49 5827 0 51 46 52 47 ?1 29 50 5722 0 52 53 47 -.0527 .002 .045375 18 52
 5720 0 27 49 54 50 ?1 29 53 5511 0 54 55 50 .0577 .022 .045375 18 54 5509 0 56
 52 57 53 ?1 29 55 5508 0 57 58 53 .0627 .022 .045375 18 57 5506 0 59 54 60 55 ?
1 29 58 5498 0 60 61 55 .0577 .032 .035375 18 60 5496 0 62 57 63 58 ?1 29 61 549
5 0 63 64 58 .0627 .032 .035375 18 63 5493 0 65 60 66 61 ?1 29 64 5352 0 66 67 6
1 -.0577 .022 -.050375 18 66 5350 0 68 63 69 64 ?1 29 67 5349 0 69 70 64 -.0577
 .022 -.045375 18 69 5347 0 71 66 72 67 ?1 29 70 5339 0 72 73 67 -.0477 .032 -.0
50375 18 72 5337 0 74 69 75 70 ?1 29 73 5336 0 75 76 70 -.0477 .032 -.045375 18
 75 5334 0 77 72 78 73 ?1 29 76 5168 0 78 79 73 .0327 .025 -.050375 18 78 5166 0
 80 75 81 76 ?1 29 79 5165 0 81 82 76 .0327 .025 -.045375 18 81 5163 0 83 78 84
 79 ?1 29 82 5156 0 84 85 79 .0227 .015 -.045375 18 84 5154 0 86 81 87 82 ?1 29
 85 5153 0 87 88 82 .0227 .015 -.050375 18 87 5151 0 89 84 90 85 ?1 29 88 4986 0
 90 91 85 -.0177 .015 -.050375 18 90 4984 0 92 87 93 88 ?1 29 91 4983 0 93 94 88
 -.0177 .015 -.045375 18 93 4981 0 95 90 96 91 ?1 29 94 4974 0 96 97 91 -.0277 .
025 -.045375 18 96 4972 0 98 93 99 94 ?1 29 97 4971 0 99 100 94 -.0277 .025 -.05
0375 18 99 4969 0 101 96 102 97 ?1 29 100 4837 0 102 103 97 -.0277 .027 -.045375
 18 102 4835 0 104 99 105 100 ?1 29 103 4834 0 105 106 100 -.0277 .027 -.050375
 18 105 4832 0 107 102 108 103 ?1 29 106 4824 0 108 109 103 -.0327 .032 -.050375
 18 108 4822 0 110 105 111 106 ?1 29 109 4821 0 111 112 106 -.0327 .032 -.045375
 18 111 4819 0 113 108 114 109 ?1 29 112 4682 0 114 115 109 .0377 .032 -.045375
 18 114 4680 0 116 111 117 112 ?1 29 115 4679 0 117 118 112 .0377 .032 -.050375
 18 117 4677 0 119 114 120 115 ?1 29 118 4670 0 120 121 115 .0327 .027 -.045375
 18 120 4668 0 122 117 123 118 ?1 29 121 4667 0 123 124 118 .0327 .027 -.050375
 18 123 4665 0 125 120 126 121 ?1 29 124 4549 0 126 127 121 .0627 .027 -.015375
 18 126 4547 0 128 123 129 124 ?1 29 127 4546 0 129 130 124 .0577 .027 -.015375
 18 129 4544 0 131 126 132 127 ?1 29 130 4534 0 132 133 127 .0627 .032 -.020375
 18 132 4532 0 134 129 135 130 ?1 29 133 4531 0 135 136 130 .0577 .032 -.020375
 18 135 4529 0 137 132 138 133 ?1 29 136 4413 0 138 139 133 .0577 .027 .015375 1
8 138 4411 0 140 135 141 136 ?1 29 139 4410 0 141 142 136 .0627 .027 .015375 18
 141 4408 0 143 138 144 139 ?1 29 142 4400 0 144 145 139 .0627 .032 .020375 18 1
44 4398 0 146 141 147 142 ?1 29 145 4397 0 147 148 142 .0577 .032 .020375 18 147
 4395 0 149 144 150 145 ?1 29 148 4248 0 150 151 145 .0577 .015 .005375 18 150 4
246 0 152 147 153 148 ?1 29 151 4245 0 153 154 148 .0627 .015 .005375 18 153 424
3 0 155 150 156 151 ?1 29 154 4236 0 156 157 151 .0577 .025 .015375 18 156 4234
 0 158 153 159 154 ?1 29 157 4233 0 159 160 154 .0627 .025 .015375 18 159 4231 0
 161 156 162 157 ?1 29 160 4085 0 162 163 157 .0577 .015 -.005375 18 162 4083 0
 164 159 165 160 ?1 29 163 4082 0 165 166 160 .0627 .015 -.005375 18 165 4080 0
 167 162 168 163 ?1 29 166 4073 0 168 169 163 .0627 .025 -.015375 18 168 4071 0
 170 165 171 166 ?1 29 169 4070 0 171 172 166 .0577 .025 -.015375 18 171 4068 0
 173 168 174 169 ?1 29 172 32 0 174 175 169 .0577 .002 .045375 18 174 30 0 176 1
71 177 172 ?1 29 175 26 0 177 178 172 -.0577 .002 -.045375 18 177 24 0 179 174 1
80 175 ?1 29 178 1663 0 180 181 175 .0627 .032 -.050375 18 180 1613 0 182 177 18
3 178 ?1 29 181 2283 0 183 184 178 .0577 .002 -.045375 18 183 2231 0 185 180 186
 181 ?1 29 184 3650 0 186 187 181 .0577 .032 -.045375 18 186 3598 0 188 183 189
 184 ?1 29 187 5675 0 189 190 184 -.0577 -.002 -.050375 18 189 5628 0 32 186 191
 187 ?1 29 190 5677 0 191 192 187 .0627 -.002 .045375 18 191 5621 0 193 189 194
 190 ?1 29 192 5678 0 194 195 190 .0627 -.002 -.050375 18 194 5627 0 196 191 197
 192 ?1 29 195 5796 0 197 198 192 -.0577 .002 .040375 18 197 5757 0 199 194 200
 195 ?1 29 198 5963 0 200 201 195 .0577 .006 .03819555052822965 18 200 5910 0 20
2 197 203 198 ?1 29 201 6137 0 203 204 198 -.0560071891388307 .006 -.045375 18 2
03 6086 0 205 200 206 201 ?1 29 204 6139 0 206 207 201 -.0577 .002 -.041625 18 2
06 6084 0 208 203 209 204 ?1 29 207 6140 0 209 210 204 -.0560071891388307 .002 -
.045375 18 209 6083 0 211 206 212 207 ?1 29 210 6141 0 212 213 207 -.04939281086
11693 .002 -.045375 18 212 6085 0 214 209 215 210 ?1 29 213 6434 0 215 216 210 .
0488928108611693 .006 -.045375 18 215 6383 0 217 212 218 213 ?1 29 216 6435 0 21
8 219 213 .0555071891388307 .006 -.045375 18 218 6380 0 220 215 221 216 ?1 29 21
9 6437 0 221 0 216 .0555071891388307 .002 -.045375 18 221 6382 0 222 218 0 219 ?
1 17 222 0 223 220 34 221 224 225 0 226 +15 255 223 6387 0 222 227 0 17 220 0 22
3 228 222 218 226 229 0 230 +17 34 0 223 222 228 30 231 232 0 224 +17 224 0 233
 214 234 30 222 225 0 235 -16 225 6360 0 ?222 236 237 238 0 0 1 17 226 0 239 240
 241 221 220 229 0 234 -15 239 6345 0 226 242 0 17 240 0 239 243 226 183 234 244
 0 0 -17 241 0 239 226 231 218 217 245 0 0 +16 229 6363 0 ?220 246 232 247 0 0 1
 17 234 0 233 224 185 221 240 244 0 0 +15 233 5870 0 234 248 0 17 185 0 233 234
 48 183 249 250 0 251 +16 244 2178 0 ?234 252 253 254 253 255 1 16 252 6011 0 ?2
56 257 244 258 257 257 1 16 253 6326 0 ?214 244 255 254 255 244 1 30 255 254 11
 0 244 259 258 0 +.0577 .002 -.045375 -1 0 0 16 255 6017 0 ?179 253 260 254 244
 253 1 17 179 0 261 262 263 177 264 255 0 265 +16 260 5 0 ?266 255 250 259 250 2
50 1 17 266 0 267 42 176 49 268 260 0 269 +16 250 5831 0 ?185 260 270 259 260 26
0 1 30 259 7 0 260 271 254 0 +.0577 .002 .045375 0 0 -1 31 271 174 0 270 272 259
 0 +-.0527 .007 .040375 0 1 0 0 0 1 .003 16 270 152 0 ?273 250 274 271 0 0 1 31
 272 215 0 274 275 271 0 +-.0527 .007 .040375 0 1 0 0 0 1 .0016 16 274 196 0 ?27
6 270 277 272 0 0 1 31 275 264 0 277 278 272 0 +.0532 .007 .040375 0 1 0 0 0 1 .
003 16 277 242 0 ?279 274 280 275 0 0 1 31 278 305 0 280 281 275 0 +.0532 .007 .
040375 0 1 0 0 0 1 .0016 16 280 286 0 ?282 277 283 278 0 0 1 31 281 355 0 283 28
4 278 0 +.0522 .007 -.041625 0 1 0 0 0 1 .003 16 283 333 0 ?285 280 286 281 0 0
 1 31 284 396 0 286 287 281 0 +.0522 .007 -.041625 0 1 0 0 0 1 .0016 16 286 377
 0 ?288 283 289 284 0 0 1 31 287 447 0 289 290 284 0 +-.0527 .007 -.041625 0 1 0
 0 0 1 .003 16 289 425 0 ?291 286 292 287 0 0 1 31 290 488 0 292 293 287 0 +-.05
27 .007 -.041625 0 1 0 0 0 1 .0016 16 292 469 0 ?294 289 295 290 0 0 1 30 293 60
0 0 296 297 290 0 +-.0577 0 -.045375 0 1 0 16 296 519 0 ?298 295 299 293 0 0 1 3
0 297 604 0 295 300 293 0 +-.0577 0 -.050375 0 1 0 16 295 538 0 ?301 292 296 297
 0 0 1 30 300 1027 0 302 303 297 0 +.0577 0 .045375 0 -1 0 16 302 5510 0 ?304 29
9 305 300 0 0 1 30 303 1031 0 299 306 300 0 +.0627 0 .045375 0 -1 0 16 299 5507
 0 ?307 296 302 303 0 0 1 30 306 1170 0 305 308 303 0 +.0627 0 -.050375 0 -1 0 1
6 305 1108 0 ?196 302 309 306 0 0 1 30 308 1554 0 309 310 306 0 +-.0577 .032 -.0
50375 -1 0 0 16 309 4823 0 ?311 305 312 308 0 0 1 30 310 1556 0 312 313 308 0 +-
.0577 .032 -.045375 1 0 0 16 312 5335 0 ?113 309 314 310 0 0 1 30 313 1654 0 314
 315 310 0 +.0527 .032 -.050375 -1 0 0 16 314 1605 0 ?316 312 317 313 0 0 1 30 3
15 1655 0 317 318 313 0 +.0627 .032 -.050375 0 0 -1 16 317 4533 0 ?182 314 319 3
15 0 0 1 30 318 1656 0 319 320 315 0 +.0527 .032 -.045375 1 0 0 16 319 4681 0 ?1
88 317 321 318 0 0 1 30 320 1755 0 321 322 318 0 +.0627 .032 .035375 0 0 -1 16 3
21 5494 0 ?146 319 323 320 0 0 1 30 322 1757 0 323 324 320 0 +.0577 .032 .035375
 0 0 1 16 323 4396 0 ?325 321 326 322 0 0 1 30 324 2280 0 326 327 322 0 +.0577 .
002 -.045375 0 -1 0 16 326 2218 0 ?251 323 328 324 0 0 1 30 327 2573 0 328 329 3
24 0 +-.0277 .005 -.050375 0 1 0 16 328 4970 0 ?107 326 330 327 0 0 1 30 329 257
5 0 330 331 327 0 +-.0277 .005 -.045375 0 -1 0 16 330 4836 0 ?332 328 333 329 0
 0 1 30 331 2702 0 333 334 329 0 +.0327 .032 -.045375 0 1 0 16 333 5164 0 ?122 3
30 335 331 0 0 1 30 334 2704 0 335 336 331 0 +.0327 .032 -.050375 0 -1 0 16 335
 4666 0 ?337 333 338 334 0 0 1 30 336 2926 0 338 339 334 0 +.0577 .032 .015375 0
 1 0 16 338 4235 0 ?340 335 341 336 0 0 1 30 339 2928 0 341 342 336 0 +.0627 .03
2 .015375 0 -1 0 16 341 4409 0 ?161 338 343 339 0 0 1 31 342 3076 0 344 345 339
 0 +.0577 .027 .030375 -1 0 0 0 0 1 .003 16 344 3050 0 ?346 343 347 342 0 0 1 31
 345 3221 0 348 349 342 0 +-.0427 .027 -.045375 0 0 1 1 0 0 .003 16 348 3166 0 ?
350 347 351 345 0 0 1 30 349 3349 0 351 352 345 0 +.0577 .015 .045377 0 0 -1 16
 351 4247 0 ?164 348 353 349 0 0 1 30 352 3350 0 353 354 349 0 +.0627 .015 .0453
77 0 0 -1 16 353 4244 0 ?167 351 355 352 0 0 1 30 354 3492 0 355 356 352 0 +.062
702 .015 -.050375 -1 0 0 16 355 5152 0 ?92 353 357 354 0 0 1 30 356 3493 0 357 3
58 354 0 +.062702 .015 -.045375 -1 0 0 16 357 5155 0 ?95 355 359 356 0 0 1 30 35
8 3637 0 359 360 356 0 +.0577 .032 -.039375 0 0 -1 16 359 4530 0 ?361 357 362 35
8 0 0 1 30 360 3771 0 362 363 358 0 +.0627 .032 -.015375 0 1 0 16 362 4072 0 ?36
4 359 365 360 0 0 1 30 363 3773 0 365 366 360 0 +.0577 .032 -.015375 0 -1 0 16 3
65 4545 0 ?173 362 367 363 0 0 1 31 366 3877 0 368 369 363 0 +.0577 .027 -.03037
5 -1 0 0 0 0 1 .003 16 368 3851 0 ?370 367 371 366 0 0 1 31 369 4020 0 372 373 3
66 0 +.0452 .027 -.045375 0 0 1 1 0 0 .003 16 372 3994 0 ?374 371 375 369 0 0 1
 30 373 5667 0 375 376 369 0 +-.0577 -.002 .045375 0 0 -1 16 375 6558 0 ?32 372
 377 373 0 0 1 30 376 5668 0 377 378 373 0 +-.0577 -.002 .045375 1 0 0 16 377 65
70 0 ?193 375 379 376 0 0 1 30 378 5669 0 379 380 376 0 +.0627 -.002 .045375 0 0
 -1 16 379 5597 0 ?381 377 382 378 0 0 1 30 380 5670 0 382 383 378 0 +-.0577 -.0
02 -.050375 1 0 0 16 382 5609 0 ?384 379 385 380 0 0 1 31 383 5791 0 385 386 380
 0 +-.0527 .006 .040375 0 1 0 0 0 1 .003 16 385 5755 0 ?387 382 388 383 0 0 1 31
 386 5794 0 389 390 383 0 +-.0527 .002 .040375 0 1 0 0 0 1 .005 16 389 5749 0 ?3
91 388 392 386 392 392 1 31 390 5795 0 388 393 386 0 +-.0527 .006 .040375 0 1 0
 0 0 1 .005 16 388 5744 0 ?394 385 389 390 0 0 1 31 393 5956 0 395 396 390 0 +.0
532 .006 .040375 0 1 0 0 0 1 .003 16 395 5908 0 ?397 392 398 393 0 0 1 31 396 59
61 0 399 400 393 0 +.0532 .002 .040375 0 1 0 0 0 1 .005 16 399 5905 0 ?269 398 4
01 396 401 401 1 31 400 5962 0 398 402 396 0 +.0532 .006 .040375 0 1 0 0 0 1 .00
5 16 398 5892 0 ?403 395 399 400 0 0 1 30 402 6128 0 404 405 400 0 --.0493928108
611693 .006 -.045375 0 -1 0 16 404 6062 0 ?406 401 407 402 0 0 1 30 405 6129 0 4
07 408 402 0 +-.0560071891388307 .006 -.045375 0 -1 0 16 407 6063 0 ?211 404 409
 405 0 0 1 30 408 6130 0 409 410 405 0 +0 .006 -.045375 1 0 0 16 409 6073 0 ?411
 407 412 408 0 0 1 31 410 6131 0 412 413 408 0 +-.0527 .006 -.041625 0 1 0 0 0 1
 .003 16 412 6080 0 ?414 409 415 410 0 0 1 31 413 6135 0 416 417 410 0 +-.0527 .
002 -.041625 0 1 0 0 0 1 .005 16 416 6059 0 ?418 419 420 413 419 419 1 31 417 61
36 0 415 421 413 0 +-.0527 .006 -.041625 0 1 0 0 0 1 .005 16 415 6067 0 ?39 412
 419 417 0 0 1 31 421 6226 0 420 422 417 0 +-.0527 -.001 -.041625 0 1 0 0 0 1 .0
016 16 420 6203 0 ?423 416 424 421 0 0 1 31 422 6262 0 424 425 421 0 +.0532 -.00
1 .040375 0 1 0 0 0 1 .0016 16 424 6239 0 ?426 420 246 422 0 0 1 31 425 6298 0 2
46 247 422 0 +-.0527 -.001 .040375 0 1 0 0 0 1 .0016 16 246 6275 0 ?427 424 229
 425 0 0 1 30 247 6425 0 229 428 425 0 -.0555071891388307 .006 -.045375 0 -1 0 3
0 428 6426 0 232 429 247 0 +.0488928108611693 .006 -.045375 0 -1 0 16 232 6364 0
 ?34 229 245 428 0 0 1 30 429 6427 0 245 430 428 0 +0 .006 -.045375 1 0 0 16 245
 6371 0 ?241 232 431 429 0 0 1 31 430 6428 0 431 238 429 0 +.0522 .006 -.041625
 0 1 0 0 0 1 .003 16 431 6378 0 ?432 245 236 430 0 0 1 31 238 6432 0 225 433 430
 0 +.0522 .002 -.041625 0 1 0 0 0 1 .005 31 433 6433 0 236 434 238 0 +.0522 .006
 -.041625 0 1 0 0 0 1 .005 16 236 6365 0 ?230 431 225 433 0 0 1 31 434 6488 0 23
7 0 433 0 +.0522 -.001 -.041625 0 1 0 0 0 1 .0016 16 237 6465 0 ?435 225 0 434 0
 0 1 17 435 0 436 435 435 0 437 237 0 0 +15 436 6478 0 435 438 0 17 437 0 439 43
7 437 0 435 237 0 0 -15 439 6474 0 437 440 0 14 255 440 380 441 ?438 442 443 5 4
44 -0 0 438 442 21 81 1 441 7154 445 440 446 0 0 447 448 14 438 6476 447 ?0 440
 436 5 449 +0 0 0 440 21 14 442 341 450 ?440 451 452 5 453 +0 0 440 451 21 15 44
3 384 0 288 440 439 51 444 393 0 440 454 453 0 +.0522 .002 -.041625 0 1 0 .0016
 0 0 1 13 21 34 0 0 0 0 0 0 9 16 14 16 6603 455 ?242 0 26 5 6 +0 0 242 0 21 81 1
 455 7157 445 16 456 0 450 457 458 14 242 6346 457 ?459 16 460 5 461 -0 0 459 16
 21 15 26 6561 0 28 16 0 17 28 0 26 24 462 25 199 463 0 464 -17 462 0 26 28 27 1
97 465 392 0 0 -17 199 0 466 467 464 197 28 463 0 256 +16 463 6560 0 ?199 23 468
 469 0 0 1 17 464 0 466 199 470 25 32 375 0 0 -15 466 85 0 464 471 0 17 470 0 46
6 464 472 189 301 295 0 473 -17 32 0 31 384 22 189 464 375 0 470 +15 31 5647 0 3
3 474 0 17 384 0 31 475 32 194 473 382 0 381 +17 475 0 31 33 384 191 381 379 0 0
 -17 473 0 476 301 196 189 384 382 0 0 -17 381 0 477 478 307 194 475 379 0 0 +15
 477 3374 0 479 480 481 17 478 0 477 482 381 180 196 305 0 483 -17 307 0 477 381
 59 191 484 299 0 475 +17 59 0 477 307 479 57 65 485 0 486 +17 484 0 487 488 193
 57 307 299 0 0 -15 487 83 0 489 490 0 17 488 0 487 304 484 54 486 491 0 492 +17
 193 0 487 484 29 191 33 377 0 307 +17 29 0 487 193 489 11 27 23 0 33 +17 33 0 3
1 22 475 11 193 377 0 0 -17 489 0 487 29 493 52 494 495 0 0 -17 27 0 26 462 24 5
2 29 23 0 465 -16 23 6572 0 ?29 10 463 19 0 0 1 30 19 6574 0 23 469 7 0 --.0527
 .002 .045375 0 1 0 30 469 6562 0 463 496 19 0 +-.0577 .002 .040375 0 1 0 30 496
 5844 0 468 497 469 0 -.0577 .006 .03819555052822965 0 -1 0 16 468 5842 0 ?202 4
63 498 496 0 0 1 30 497 5841 0 498 499 496 0 +.0577 .006 .04255444947177035 0 -1
 0 16 498 5840 0 ?51 468 500 497 0 0 1 30 499 5839 0 500 501 497 0 +.0577 .006 0
 0 0 -1 16 500 5837 0 ?502 498 485 499 0 0 1 31 501 5536 0 485 503 499 0 -.0627
 .022 .035375 -1 0 0 0 0 1 .01 16 485 5534 0 ?59 500 504 501 0 0 1 31 503 5523 0
 504 505 501 0 +.0577 .022 .035375 -1 0 0 0 0 1 .01 16 504 5521 0 ?62 485 491 50
3 0 0 1 30 505 5514 0 491 506 503 0 -0 .022 .045375 1 0 0 16 491 5512 0 ?488 504
 507 505 0 0 1 30 506 5501 0 507 508 505 0 +0 .032 .035375 1 0 0 16 507 5499 0 ?
509 491 510 506 0 0 1 31 508 5383 0 510 511 506 0 --.0477 .022 -.045375 0 0 -1 -
1 0 0 .01 16 510 5381 0 ?71 507 512 508 0 0 1 31 511 5364 0 512 513 508 0 +-.047
7 .022 -.050375 0 0 -1 -1 0 0 .01 16 512 5362 0 ?74 510 514 511 0 0 1 30 513 535
5 0 514 515 511 0 --.0577 .022 .045375 0 0 1 16 514 5353 0 ?472 512 516 513 0 0
 1 30 515 5342 0 516 517 513 0 +-.0477 .032 0 0 0 1 16 516 5340 0 ?518 514 519 5
15 0 0 1 31 517 5277 0 519 520 515 0 +.0227 .025 -.050375 0 0 -1 -1 0 0 .01 16 5
19 5229 0 ?89 516 521 517 0 0 1 31 520 5228 0 521 522 517 0 -.0227 .025 -.045375
 0 0 -1 -1 0 0 .01 16 521 5184 0 ?83 519 523 520 0 0 1 30 522 5171 0 523 524 520
 0 -.0327 .025 0 0 0 -1 16 523 5169 0 ?525 521 526 522 0 0 1 30 524 5159 0 526 5
27 522 0 +.0227 .015 -.045375 0 0 -1 16 526 5157 0 ?528 523 529 524 0 0 1 31 527
 5095 0 529 530 524 0 +-.0177 .025 -.050375 0 0 -1 -1 0 0 .01 16 529 5047 0 ?101
 526 531 527 0 0 1 31 530 5046 0 531 532 527 0 --.0177 .025 -.045375 0 0 -1 -1 0
 0 .01 16 531 5002 0 ?533 529 534 530 0 0 1 30 532 4989 0 534 535 530 0 --.0177
 .015 0 0 0 -1 16 534 4987 0 ?536 531 537 532 0 0 1 30 535 4977 0 537 538 532 0
 +-.0277 .025 0 0 0 -1 16 537 4975 0 ?539 534 540 535 0 0 1 31 538 4863 0 540 54
1 535 0 +-.0327 .027 -.050375 0 0 -1 -1 0 0 .005 16 540 4861 0 ?542 537 543 538
 0 0 1 31 541 4846 0 543 544 538 0 --.0327 .027 -.045375 0 0 -1 -1 0 0 .005 16 5
43 4844 0 ?545 540 546 541 0 0 1 30 544 4840 0 546 547 541 0 --.0277 .027 0 0 0
 -1 16 546 4838 0 ?548 543 549 544 0 0 1 30 547 4827 0 549 550 544 0 +-.0327 .03
2 0 0 0 -1 16 549 4825 0 ?551 546 552 547 0 0 1 31 550 4711 0 552 553 547 0 +.03
77 .027 -.050375 0 0 -1 -1 0 0 .005 16 552 4709 0 ?119 549 554 550 0 0 1 31 553
 4694 0 554 555 550 0 -.0377 .027 -.045375 0 0 -1 -1 0 0 .005 16 554 4692 0 ?556
 552 557 553 0 0 1 30 555 4685 0 557 558 553 0 -.0377 .032 0 0 0 -1 16 557 4683
 0 ?559 554 560 555 0 0 1 30 558 4673 0 560 561 555 0 +.0327 .027 0 0 0 -1 16 56
0 4671 0 ?562 557 563 558 0 0 1 31 561 4571 0 563 564 558 0 -.0627 .027 -.020375
 -1 0 0 0 0 1 .005 16 563 4569 0 ?128 560 565 561 0 0 1 31 564 4558 0 565 566 56
1 0 +.0577 .027 -.020375 -1 0 0 0 0 1 .005 16 565 4556 0 ?137 563 567 564 0 0 1
 30 566 4552 0 567 568 564 0 -0 .027 -.015375 1 0 0 16 567 4550 0 ?569 565 570 5
66 0 0 1 30 568 4537 0 570 571 566 0 +0 .032 -.020375 1 0 0 16 570 4535 0 ?572 5
67 573 568 0 0 1 31 571 4438 0 573 574 568 0 +.0577 .027 .020375 -1 0 0 0 0 1 .0
05 16 573 4436 0 ?140 570 575 571 0 0 1 31 574 4422 0 575 576 571 0 -.0627 .027
 .020375 -1 0 0 0 0 1 .005 16 575 4420 0 ?577 573 578 574 0 0 1 30 576 4416 0 57
8 579 574 0 -0 .027 .015375 -1 0 0 16 578 4414 0 ?580 575 581 576 0 0 1 30 579 4
403 0 581 582 576 0 +0 .032 .020375 -1 0 0 16 581 4401 0 ?583 578 584 579 0 0 1
 31 582 4343 0 584 585 579 0 +.0577 .025 .005375 -1 0 0 0 0 1 .01 16 584 4307 0
 ?158 581 586 582 0 0 1 31 585 4306 0 586 587 582 0 -.0627 .025 .005375 -1 0 0 0
 0 1 .01 16 586 4264 0 ?155 584 588 585 0 0 1 30 587 4251 0 588 589 585 0 -.0577
 .015 .005375 -1 0 0 16 588 4249 0 ?590 586 591 587 0 0 1 30 589 4239 0 591 592
 587 0 +0 .025 .015375 -1 0 0 16 591 4237 0 ?593 588 594 589 0 0 1 31 592 4180 0
 594 595 589 0 -.0627 .025 -.005375 -1 0 0 0 0 1 .01 16 594 4138 0 ?170 591 596
 592 0 0 1 31 595 4137 0 596 597 592 0 +.0577 .025 -.005375 -1 0 0 0 0 1 .01 16
 596 4101 0 ?598 594 599 595 0 0 1 30 597 4088 0 599 600 595 0 -.0577 .015 -.005
375 1 0 0 16 599 4086 0 ?601 596 602 597 0 0 1 30 600 4076 0 602 603 597 0 +0 .0
25 -.015375 1 0 0 16 602 4074 0 ?604 599 495 600 0 0 1 31 603 3956 0 371 605 600
 0 +.0452 .027 -.050375 0 0 -1 -1 0 0 .003 16 371 3993 0 ?606 368 372 603 0 0 1
 31 605 3820 0 367 607 603 0 +.0627 .027 -.030375 -1 0 0 0 0 1 .003 16 367 3847
 0 ?608 365 368 605 0 0 1 31 607 3117 0 347 609 605 0 +-.0427 .027 -.050375 0 0
 -1 -1 0 0 .003 16 347 3165 0 ?610 344 348 607 0 0 1 31 609 3025 0 343 611 607 0
 +.0627 .027 .030375 -1 0 0 0 0 1 .003 16 343 3046 0 ?612 341 344 609 0 0 1 30 6
11 19 0 613 258 609 0 +.0577 .002 .045375 1 0 0 16 613 5867 0 ?176 495 257 611 4
95 495 1 30 258 15 0 257 254 611 0 +-.0577 .002 .045375 0 0 1 16 257 13 0 ?262 6
13 252 258 252 252 1 17 262 0 261 263 179 206 265 257 0 0 +15 261 6042 0 262 459
 0 17 263 0 261 179 262 209 208 419 0 264 -17 265 0 466 298 467 177 262 257 0 61
4 -17 298 0 466 472 265 69 614 296 0 0 +17 467 0 466 265 199 206 256 252 0 262 -
17 614 0 239 264 71 177 298 296 0 0 -17 264 0 239 615 614 209 179 255 0 0 -17 71
 0 239 614 616 69 77 510 0 617 +17 616 0 239 71 545 75 113 312 0 0 -17 77 0 618
 619 617 75 71 510 0 518 -17 617 0 618 77 68 69 472 514 0 298 -15 618 5341 0 619
 620 0 17 68 0 618 617 619 66 74 512 0 472 -17 472 0 466 470 298 66 617 514 0 30
1 +17 301 0 476 74 473 66 470 295 0 0 +15 476 3511 0 301 621 622 17 74 0 476 623
 301 72 68 512 0 619 +17 623 0 476 542 74 108 311 309 0 0 -17 619 0 618 68 77 72
 518 516 0 311 -17 518 0 624 113 311 75 619 516 0 616 +17 311 0 624 518 551 72 6
23 309 0 0 +15 624 1534 0 311 625 0 17 551 0 624 311 113 108 626 549 0 623 +17 1
13 0 624 551 518 111 616 312 0 545 +17 626 0 627 104 110 111 551 549 0 0 -15 627
 4826 0 626 628 0 17 104 0 627 629 626 102 545 543 0 548 -17 110 0 627 626 629 1
08 542 540 0 551 -17 629 0 627 110 104 105 548 546 0 0 -17 542 0 476 630 623 105
 110 540 0 629 +17 630 0 476 631 542 99 107 328 0 0 -17 631 0 476 632 630 90 101
 529 0 633 -17 107 0 634 548 539 105 630 328 0 542 +15 634 3420 0 332 635 0 17 5
48 0 634 332 107 102 629 546 0 636 +17 539 0 634 107 332 99 637 537 0 630 +17 33
2 0 634 539 548 96 636 330 0 0 +17 637 0 638 533 101 96 539 537 0 332 -15 638 49
76 0 637 639 0 17 533 0 638 633 637 93 98 531 0 536 +17 101 0 638 637 633 99 631
 529 0 539 +17 633 0 638 101 533 90 536 534 0 0 -17 536 0 640 641 92 93 633 534
 0 0 +15 640 3465 0 641 642 0 17 641 0 640 528 536 84 95 357 0 0 -17 92 0 640 53
6 528 90 632 355 0 631 +17 528 0 640 92 641 87 643 526 0 632 +17 632 0 476 80 63
1 87 92 355 0 0 -17 80 0 476 644 632 78 89 519 0 645 -17 644 0 476 119 80 123 33
7 335 0 0 -17 89 0 646 643 645 87 80 519 0 528 +17 645 0 646 89 83 78 525 523 0
 337 -15 646 5158 0 643 647 0 17 83 0 646 645 643 81 86 521 0 525 +17 525 0 648
 122 337 81 645 523 0 649 +17 337 0 648 525 562 78 644 335 0 0 +15 648 2681 0 33
7 650 0 17 562 0 648 337 122 123 651 560 0 644 +17 122 0 648 562 525 120 649 333
 0 556 +17 651 0 652 116 125 120 562 560 0 0 -15 652 4672 0 651 653 0 17 116 0 6
52 654 651 114 556 554 0 559 -17 125 0 652 651 654 123 119 552 0 562 -17 654 0 6
52 125 116 117 559 557 0 316 -17 119 0 476 483 644 117 125 552 0 654 +17 483 0 4
76 196 119 180 316 314 0 0 -17 196 0 476 473 483 194 478 305 0 384 +17 316 0 655
 559 182 117 483 314 0 0 +15 655 1634 0 316 656 0 17 559 0 655 188 316 114 654 5
57 0 657 +17 182 0 655 316 572 180 482 317 0 478 +17 572 0 655 182 658 132 659 5
70 0 482 +17 482 0 477 128 478 132 182 317 0 0 -17 128 0 477 660 482 126 134 563
 0 661 +17 660 0 477 662 128 168 364 362 0 0 -17 134 0 663 659 661 132 128 563 0
 572 -17 661 0 663 134 131 126 569 567 0 364 -15 663 4536 0 659 664 0 17 131 0 6
63 661 659 129 137 565 0 569 -17 569 0 665 173 364 129 661 567 0 666 +17 364 0 6
65 569 604 126 660 362 0 0 +15 665 3750 0 364 667 0 17 604 0 665 364 173 168 668
 602 0 660 +17 173 0 665 604 569 171 666 365 0 669 +17 668 0 670 598 170 171 604
 602 0 0 -15 670 4075 0 668 671 0 17 598 0 670 672 668 162 669 596 0 601 +17 170
 0 670 668 672 168 662 594 0 604 +17 672 0 670 170 598 165 601 599 0 0 -17 662 0
 477 673 660 165 170 594 0 672 -17 673 0 477 674 662 153 167 353 0 0 -17 674 0 4
77 675 673 159 155 586 0 676 -17 167 0 677 601 590 165 673 353 0 662 +15 677 333
2 0 678 679 0 17 601 0 677 678 167 162 672 599 0 0 +17 590 0 677 167 678 153 680
 588 0 673 +17 678 0 677 590 601 150 164 351 0 0 -17 680 0 681 158 155 150 590 5
88 0 678 -15 681 4238 0 676 682 0 17 158 0 681 676 680 156 152 584 0 593 +17 155
 0 681 680 676 153 674 586 0 590 +17 676 0 681 155 158 159 593 591 0 0 -17 593 0
 683 340 161 156 676 591 0 684 +15 683 2905 0 340 685 0 17 340 0 683 580 593 138
 684 338 0 0 +17 161 0 683 593 580 159 675 341 0 674 +17 684 0 686 152 140 156 3
40 338 0 0 -15 686 5834 0 249 687 0 17 152 0 686 164 684 150 158 584 0 680 -17 1
40 0 686 684 688 138 149 573 0 689 +17 688 0 686 140 62 147 325 323 0 0 -17 149
 0 690 691 689 147 140 573 0 583 -17 689 0 690 149 143 138 580 578 0 340 -15 690
 4402 0 691 692 0 17 143 0 690 689 691 141 577 575 0 580 -17 580 0 683 161 340 1
41 689 578 0 675 +17 675 0 477 577 674 141 161 341 0 0 -17 577 0 477 479 675 144
 143 575 0 691 +17 479 0 477 59 577 63 146 321 0 0 -17 691 0 690 143 149 144 583
 581 0 0 -17 583 0 693 325 146 147 691 581 0 688 +15 693 1734 0 325 694 0 17 325
 0 693 509 583 60 688 323 0 0 +17 146 0 693 583 509 144 479 321 0 577 +17 509 0
 693 146 325 63 695 507 0 479 +17 695 0 696 56 65 60 509 507 0 325 -15 696 5500
 0 695 697 0 17 56 0 696 486 695 54 62 504 0 488 -17 65 0 696 695 486 63 59 485
 0 509 -17 486 0 696 65 56 57 488 491 0 484 -17 62 0 686 688 492 60 56 504 0 695
 +17 492 0 686 62 268 54 304 302 0 0 -17 268 0 686 492 51 174 266 260 0 0 -17 30
4 0 487 493 488 174 492 302 0 268 +17 493 0 487 489 304 40 176 613 0 494 -17 176
 0 267 266 42 174 493 613 0 304 +17 494 0 233 48 698 40 489 495 0 699 +17 48 0 2
33 185 494 46 699 401 0 249 -17 698 0 233 494 256 52 391 389 0 489 -16 495 5721
 0 ?494 602 613 611 613 613 1 17 699 0 700 269 701 40 48 401 0 0 +15 700 5942 0
 701 702 0 17 269 0 700 703 699 49 42 399 0 0 +17 701 0 700 699 704 46 202 468 0
 0 -16 401 5902 0 ?699 399 404 396 399 399 1 17 704 0 700 701 703 200 403 398 0
 0 -17 202 0 686 45 249 200 701 468 0 502 +17 45 0 686 51 202 43 502 500 0 703 -
17 249 0 686 202 251 46 185 250 0 701 -17 502 0 705 403 403 200 45 500 0 704 +15
 705 5921 0 403 706 707 17 403 0 705 502 502 43 704 398 0 0 +14 706 5919 708 ?70
2 709 705 5 710 +0 0 702 709 21 15 707 5922 0 711 706 0 17 711 0 707 711 711 0 3
97 395 0 0 -17 397 0 712 397 397 0 711 395 0 0 +15 712 5861 0 397 713 714 14 713
 245 715 ?716 702 712 5 717 -0 0 716 702 21 15 714 248 0 718 713 0 17 718 0 714
 718 718 0 279 277 0 0 -17 279 0 719 279 279 0 718 277 0 0 +15 719 253 0 279 716
 0 14 716 250 720 ?721 713 722 5 723 +0 0 721 713 21 81 1 720 7161 445 716 724 0
 715 725 726 14 721 289 725 ?727 716 728 5 729 -0 0 727 716 21 15 722 278 0 730
 716 719 50 255 723 262 0 716 729 717 0 +0 .007 0 0 1 0 0 0 1 51 729 302 0 721 7
31 723 0 +.0532 .002 .040375 0 1 0 .0016 0 0 1 51 717 260 0 713 723 732 0 -.0532
 .007 .040375 0 -1 0 .003 0 0 -1 51 732 212 0 709 717 733 0 +-.0527 .002 .040375
 0 1 0 .0016 0 0 1 14 709 199 734 ?706 735 736 5 732 -0 0 706 735 21 50 733 172
 0 735 732 737 0 +0 .007 0 0 1 0 0 0 1 14 735 160 738 ?709 739 740 5 733 +0 0 70
9 739 21 51 737 170 0 739 733 741 0 --.0527 .007 .040375 0 -1 0 .003 0 0 -1 14 7
39 155 742 ?735 743 744 5 737 -0 0 735 743 21 50 741 3 0 745 737 746 0 +0 .002 0
 0 1 0 0 0 1 14 745 2203 747 ?471 685 267 5 741 +459 248 471 685 21 50 746 91 0
 490 741 748 0 +.0577 .002 .045375 0 0 -1 -1 0 0 14 490 84 749 ?621 471 487 5 74
6 -0 0 621 471 21 50 748 92 0 471 746 750 0 +-.0577 .002 .045375 1 0 0 0 0 -1 14
 471 86 751 ?490 745 466 5 748 -0 0 490 745 21 51 750 4181 0 671 748 752 0 +0 .0
25 -.005375 1 0 0 .01 0 0 -1 14 671 4098 753 ?635 682 670 5 750 -0 0 635 682 21
 51 752 4344 0 682 750 754 0 +0 .025 .005375 -1 0 0 .01 0 0 1 14 682 4261 755 ?6
71 692 681 5 752 -0 0 671 692 21 51 754 4479 0 692 752 756 0 +0 .027 .020375 -1
 0 0 .005 0 0 1 14 692 4476 757 ?682 664 690 5 754 +0 0 682 664 21 51 756 4615 0
 664 754 758 0 +0 .027 -.020375 1 0 0 .005 0 0 -1 14 664 4612 759 ?692 653 663 5
 756 +0 0 692 653 21 51 758 4768 0 653 756 760 0 +.0377 .027 0 0 0 -1 .005 -1 0
 0 14 653 4765 761 ?664 628 652 5 758 +0 0 664 628 21 51 760 4917 0 628 758 762
 0 +-.0327 .027 0 0 0 -1 .005 -1 0 0 14 628 4914 763 ?653 639 627 5 760 +0 0 653
 639 21 51 762 5096 0 639 760 764 0 +-.0177 .025 0 0 0 1 .01 1 0 0 14 639 4999 7
65 ?628 647 638 5 762 -0 0 628 647 21 51 764 5278 0 647 762 766 0 +.0227 .025 -.
045375 0 0 -1 .01 -1 0 0 14 647 5181 767 ?639 620 646 5 764 -0 0 639 620 21 51 7
66 5437 0 620 764 18 0 +-.0477 .022 0 0 0 1 .01 1 0 0 14 620 5434 768 ?647 697 6
18 5 766 +0 0 647 697 21 51 18 5582 0 697 766 6 0 +0 .022 .035375 -1 0 0 .01 0 0
 1 14 697 5579 769 ?620 687 696 5 18 +0 0 620 687 21 81 1 769 7178 445 697 770 0
 768 771 772 14 687 5845 771 ?697 248 773 5 774 +0 0 697 248 21 81 1 771 7179 44
5 687 775 0 769 776 777 14 248 5872 776 ?687 459 233 5 741 +745 459 687 459 21 1
5 773 3835 0 778 687 779 50 774 1018 0 687 780 781 0 +.0577 0 0 -1 0 0 0 0 1 50
 780 1019 0 480 782 774 0 +.0627 0 0 -1 0 0 0 0 1 50 781 592 0 621 774 461 0 +0
 0 -.050375 0 0 -1 -1 0 0 14 621 579 783 ?480 490 784 5 781 +0 0 480 490 21 50 4
61 591 0 242 781 785 0 +0 0 -.045375 0 0 -1 -1 0 0 51 785 485 0 786 461 787 0 +-
.0527 .002 -.041625 0 1 0 .0016 0 0 1 14 786 472 788 ?789 790 791 5 785 -0 0 789
 790 21 50 787 445 0 790 785 454 0 +0 .007 0 0 1 0 0 0 1 14 790 433 792 ?786 793
 794 5 787 +0 0 786 793 21 51 454 443 0 793 787 444 0 --.0527 .007 -.041625 0 -1
 0 .003 0 0 -1 14 793 428 795 ?790 796 797 5 454 -0 0 790 796 21 81 1 795 7184 4
45 793 798 0 792 799 800 14 796 6091 799 ?793 727 801 5 802 +0 0 793 727 21 15 7
97 6005 0 414 793 803 17 414 0 797 414 414 0 804 412 0 0 +15 803 431 0 805 793 0
 17 805 0 803 805 805 0 291 289 0 0 -17 291 0 806 291 291 0 805 289 0 0 +15 806
 436 0 291 790 0 17 804 0 801 804 804 0 414 412 0 0 -15 801 6093 0 804 796 807 1
5 807 6094 0 205 796 0 17 205 0 807 39 39 203 411 409 0 808 -17 39 0 807 205 205
 35 808 415 0 406 +17 411 0 239 809 615 35 205 409 0 0 +17 808 0 810 211 406 203
 39 415 0 615 -15 810 6090 0 418 727 0 17 211 0 810 208 808 209 615 407 0 263 +1
7 406 0 810 808 418 35 809 404 0 411 +17 615 0 239 411 264 203 211 407 0 0 -17 4
18 0 810 406 208 212 811 416 0 809 +17 809 0 239 235 411 212 406 404 0 0 -17 235
 0 239 231 809 30 214 253 0 0 -17 231 0 239 241 235 215 34 232 0 0 -17 214 0 233
 811 224 212 235 253 0 418 +17 811 0 233 256 214 206 418 416 0 467 -17 256 0 233
 698 811 197 467 252 0 391 +17 391 0 812 465 465 197 698 389 0 462 +15 812 5777
 0 391 743 0 17 465 0 812 391 391 52 462 392 0 698 +16 392 5752 0 ?465 389 395 3
86 389 389 1 14 743 5773 813 ?739 814 815 5 816 -0 0 739 814 21 81 1 813 7186 44
5 743 817 0 799 818 819 14 814 5759 818 ?743 474 820 5 821 +0 0 743 474 21 15 81
5 5776 0 822 743 812 51 816 5788 0 743 821 823 0 --.0527 .006 .040375 0 -1 0 .00
5 0 0 -1 50 821 5790 0 814 824 816 0 +-.0527 .006 .040375 0 1 0 0 0 1 50 823 565
8 0 474 816 825 0 +0 -.002 0 0 1 0 0 0 1 14 474 5645 826 ?814 827 31 5 823 -0 0
 814 827 21 51 825 4017 0 827 823 828 0 +.0452 .027 -.069375 0 0 1 .003 1 0 0 14
 827 4002 829 ?474 830 831 5 825 -0 0 474 830 21 51 828 3874 0 830 825 832 0 +.0
817 .027 -.030375 -1 0 0 .003 0 0 1 14 830 3854 833 ?827 667 834 5 828 -0 0 827
 667 21 50 832 3761 0 667 828 835 0 +0 0 -.015375 0 0 1 1 0 0 14 667 3748 836 ?8
30 642 665 5 832 +0 0 830 642 21 50 835 3482 0 642 832 837 0 +.062702 .015 -.045
375 0 -1 0 0 0 -1 14 642 3462 838 ?667 679 640 5 835 -0 0 667 679 21 50 837 3344
 0 679 835 839 0 +.0577 .015 .045377 0 -1 0 0 0 -1 14 679 3329 840 ?642 841 677
 5 837 -0 0 642 841 21 51 839 3216 0 841 837 842 0 +-.0427 .027 -.065375 0 0 1 .
003 1 0 0 14 841 3174 843 ?679 844 845 5 839 -0 0 679 844 21 51 842 3073 0 844 8
39 846 0 +.0777 .027 .030375 -1 0 0 .003 0 0 1 14 844 3053 847 ?841 694 848 5 84
2 -0 0 841 694 21 50 846 2916 0 685 842 849 0 +0 0 .015375 0 0 -1 -1 0 0 14 685
 3264 850 ?745 650 683 5 846 +0 0 745 650 21 50 849 2692 0 650 846 851 0 +.0327
 0 0 -1 0 0 0 0 1 14 650 3411 852 ?685 635 648 5 849 +0 0 685 635 21 50 851 2563
 0 635 849 853 0 +-.0277 0 0 -1 0 0 0 0 1 14 635 3422 854 ?650 671 634 5 851 -0
 0 650 671 21 50 853 1745 0 694 851 855 0 +0 .032 0 0 1 0 0 0 1 14 694 1732 856
 ?844 656 693 5 853 +0 0 844 656 21 50 855 1645 0 656 853 782 0 +0 .032 0 0 1 0
 0 0 1 14 656 1632 857 ?694 625 655 5 855 +0 0 694 625 21 50 782 1545 0 625 855
 780 0 +0 .032 0 0 -1 0 0 0 -1 14 625 1532 858 ?656 480 624 5 782 -0 0 656 480 2
1 81 1 858 7201 445 625 859 0 857 860 861 14 480 1006 860 ?625 621 862 5 780 -0
 0 625 621 21 81 1 860 7202 445 480 863 0 858 864 865 15 862 3818 0 608 480 477
 17 608 0 862 608 608 0 866 367 0 0 +17 866 0 867 866 866 0 608 367 0 0 -15 867
 3858 0 866 830 0 80 255 1 445 868 869 9000 1 1 1 1 1 1 1 1 0 FFFFTFTFFFFFFF1 81
 1 863 6933 870 480 0 860 871 859 872 81 1 864 7203 445 702 873 0 860 874 875 82
 255 1 865 92406031 14 702 5939 864 ?713 706 700 5 824 -0 0 713 706 21 81 1 873
 6951 870 702 0 864 876 877 878 81 1 874 7204 445 459 879 0 864 880 881 82 1 875
 1517289749 14 459 6044 874 ?248 242 261 5 741 +248 745 248 242 21 81 1 879 6913
 870 459 0 874 882 883 884 81 1 880 7205 445 727 885 0 874 886 887 82 1 881 -157
0701032 14 727 6087 880 ?796 721 810 5 888 -0 0 796 721 21 81 1 885 6955 870 727
 0 880 889 890 891 81 1 886 7206 445 789 892 0 880 893 894 82 1 887 -1573715688
 14 789 6214 886 ?895 786 896 5 897 +0 0 895 786 21 81 1 892 6960 870 789 0 886
 898 899 900 81 1 893 7207 445 895 899 0 886 901 902 82 1 894 603717918 14 895 6
250 893 ?903 789 904 5 905 +0 0 903 789 21 81 1 899 6961 870 895 0 893 892 906 9
07 81 1 901 7208 445 903 906 0 893 908 909 82 1 902 2048786723 14 903 6286 901 ?
227 895 910 5 911 +0 0 227 895 21 81 1 906 6962 870 903 0 901 899 912 913 81 1 9
08 7209 445 227 912 0 901 914 915 82 1 909 -1506213594 14 227 6384 908 ?916 903
 223 5 917 -0 0 916 903 21 81 1 912 6963 870 227 0 908 906 918 919 81 1 914 7210
 445 916 918 0 908 920 921 82 1 915 998244660 14 916 6388 914 ?451 227 922 5 923
 +0 0 451 227 21 81 1 918 6964 870 916 0 914 912 924 925 81 1 920 7211 445 451 9
24 0 914 0 926 82 1 921 995623220 14 451 336 920 ?442 916 927 5 731 -0 0 442 916
 21 81 1 924 6965 870 451 0 920 918 928 929 82 1 926 93978932 80 1 870 0 930 800
1 0 0 0 0 3 5 0 0 0 FFFFTFTFFFFFFF2 81 1 928 6966 870 442 0 450 924 446 931 83 2
55 3 929 .792156862745098 .819607843137255 .933333333333333 81 1 450 7156 445 44
2 928 0 447 455 932 81 1 446 6967 870 440 0 441 928 933 934 83 3 931 .7921568627
45098 .819607843137255 .933333333333333 81 1 933 6968 870 438 0 447 446 0 935 83
 3 934 .792156862745098 .819607843137255 .933333333333333 81 1 447 7155 445 438
 933 0 441 450 936 83 3 935 .792156862745098 .819607843137255 .933333333333333 8
2 1 936 1101005111 82 1 932 1052311673 79 255 15 930 SDL/TYSA_COLOUR15 927 6317
 0 432 451 937 51 731 351 0 451 453 729 0 -.0522 .007 -.041625 0 -1 0 .003 0 0 -
1 50 453 353 0 442 444 731 0 +0 .007 0 0 1 0 0 0 1 17 432 0 927 432 432 0 938 43
1 0 0 +15 937 339 0 939 451 0 17 939 0 937 939 939 0 285 283 0 0 -17 285 0 940 2
85 285 0 939 283 0 0 +15 940 344 0 285 442 0 17 938 0 922 938 938 0 432 431 0 0
 -15 922 6390 0 938 916 941 15 941 6391 0 217 916 0 17 217 0 941 230 230 215 241
 245 0 228 -17 230 0 941 217 217 218 228 236 0 241 +17 228 0 223 34 220 215 230
 236 0 231 -83 3 925 .792156862745098 .819607843137255 .933333333333333 50 923 6
424 0 916 449 917 0 +.0522 .006 -.041625 0 1 0 0 0 1 50 449 6486 0 438 0 923 0 +
.0522 -.001 -.041625 0 1 0 0 0 1 51 917 6422 0 227 923 911 0 -.0522 .006 -.04162
5 0 -1 0 .005 0 0 -1 50 911 6296 0 903 917 905 0 +-.0527 -.001 .040375 0 1 0 0 0
 1 50 905 6260 0 895 911 897 0 +.0532 -.001 .040375 0 1 0 0 0 1 50 897 6224 0 78
9 905 802 0 +-.0527 -.001 -.041625 0 1 0 0 0 1 50 802 6127 0 796 897 888 0 +-.05
27 .006 -.041625 0 1 0 0 0 1 51 888 6125 0 727 802 710 0 --.0527 .006 -.041625 0
 -1 0 .005 0 0 -1 50 710 5955 0 706 888 824 0 +.0532 .006 .040375 0 1 0 0 0 1 51
 824 5953 0 702 710 821 0 -.0532 .006 .040375 0 -1 0 .005 0 0 -1 83 3 919 .79215
6862745098 .819607843137255 .933333333333333 83 3 913 .792156862745098 .81960784
3137255 .933333333333333 15 910 6288 0 427 903 0 17 427 0 910 427 427 0 942 246
 0 0 +17 942 0 943 942 942 0 427 246 0 0 -15 943 6284 0 942 709 0 83 3 907 .7921
56862745098 .819607843137255 .933333333333333 15 904 6252 0 426 895 0 17 426 0 9
04 426 426 0 944 424 0 0 +17 944 0 945 944 944 0 426 424 0 0 -15 945 6248 0 944
 721 0 81 1 898 6959 870 786 0 788 946 892 947 83 3 900 .792156862745098 .819607
843137255 .933333333333333 81 1 788 7182 445 786 898 0 783 792 948 81 1 946 6958
 870 790 0 792 798 898 949 83 3 947 .792156862745098 .819607843137255 .933333333
333333 81 1 792 7183 445 790 946 0 788 795 950 81 1 798 6957 870 793 0 795 890 9
46 951 83 3 949 .792156862745098 .819607843137255 .933333333333333 81 1 890 6956
 870 796 0 799 885 798 952 83 3 951 .792156862745098 .819607843137255 .933333333
333333 81 1 799 7185 445 796 890 0 795 813 953 83 3 952 .792156862745098 .819607
843137255 .933333333333333 82 1 953 -1575288552 82 1 950 -516226945 81 1 783 718
1 445 621 871 0 776 788 954 82 1 948 93192478 81 1 871 6932 870 621 0 783 955 86
3 956 81 1 776 7180 445 248 883 0 771 783 957 82 1 954 92733711 81 1 883 6914 87
0 248 0 776 879 775 958 82 1 957 1528627508 81 1 775 6915 870 687 0 771 883 770
 959 83 3 958 .792156862745098 .819607843137255 .933333333333333 81 1 770 6916 8
70 697 0 769 775 960 961 83 3 959 .792156862745098 .819607843137255 .93333333333
3333 81 1 960 6917 870 620 0 768 770 962 963 83 3 961 .792156862745098 .81960784
3137255 .933333333333333 81 1 768 7177 445 620 960 0 767 769 964 81 1 962 6918 8
70 647 0 767 960 965 966 83 3 963 .792156862745098 .819607843137255 .93333333333
3333 81 1 767 7176 445 647 962 0 765 768 967 81 1 965 6919 870 639 0 765 962 968
 969 83 3 966 .792156862745098 .819607843137255 .933333333333333 81 1 765 7175 4
45 639 965 0 763 767 970 81 1 968 6920 870 628 0 763 965 971 972 83 3 969 .79215
6862745098 .819607843137255 .933333333333333 81 1 763 7174 445 628 968 0 761 765
 973 81 1 971 6921 870 653 0 761 968 974 975 83 3 972 .792156862745098 .81960784
3137255 .933333333333333 81 1 761 7173 445 653 971 0 759 763 976 81 1 974 6922 8
70 664 0 759 971 977 978 83 3 975 .792156862745098 .819607843137255 .93333333333
3333 81 1 759 7172 445 664 974 0 757 761 979 81 1 977 6923 870 692 0 757 974 980
 981 83 3 978 .792156862745098 .819607843137255 .933333333333333 81 1 757 7171 4
45 692 977 0 755 759 982 81 1 980 6924 870 682 0 755 977 983 984 83 3 981 .79215
6862745098 .819607843137255 .933333333333333 81 1 755 7170 445 682 980 0 753 757
 985 81 1 983 6925 870 671 0 753 980 986 987 83 3 984 .792156862745098 .81960784
3137255 .933333333333333 81 1 753 7169 445 671 983 0 751 755 988 81 1 986 6926 8
70 635 0 854 983 989 990 83 3 987 .792156862745098 .819607843137255 .93333333333
3333 81 1 854 7198 445 635 986 0 852 856 991 81 1 989 6927 870 650 0 852 986 992
 993 83 3 990 .792156862745098 .819607843137255 .933333333333333 81 1 852 7197 4
45 650 989 0 850 854 994 81 1 992 6928 870 685 0 850 989 995 996 83 3 993 .79215
6862745098 .819607843137255 .933333333333333 81 1 850 7196 445 685 992 0 847 852
 997 81 1 995 6929 870 745 0 747 992 998 999 83 3 996 .792156862745098 .81960784
3137255 .933333333333333 81 1 747 7166 445 745 995 0 742 749 1000 81 1 998 6930
 870 471 0 751 995 955 1001 83 3 999 .792156862745098 .819607843137255 .93333333
3333333 81 1 751 7168 445 471 998 0 749 753 1002 81 1 955 6931 870 490 0 749 998
 871 1003 83 3 1001 .792156862745098 .819607843137255 .933333333333333 81 1 749
 7167 445 490 955 0 747 751 1004 83 3 1003 .792156862745098 .819607843137255 .93
3333333333333 82 1 1004 91685182 82 1 1002 91816254 81 1 742 7165 445 739 1005 0
 738 747 1006 82 1 1000 91095317 81 1 1005 6947 870 739 0 742 817 1007 1008 81 1
 738 7164 445 735 1007 0 734 742 1009 82 1 1006 95027474 81 1 1007 6948 870 735
 0 738 1005 1010 1011 81 1 734 7163 445 709 1010 0 725 738 1012 82 1 1009 -78164
7763 81 1 1010 6949 870 709 0 734 1007 876 1013 81 1 725 7162 445 721 889 0 720
 734 1014 82 1 1012 94765350 81 1 889 6954 870 721 0 725 724 885 1015 82 1 1014
 94241059 81 1 724 6953 870 716 0 720 877 889 1016 83 3 1015 .792156862745098 .8
19607843137255 .933333333333333 81 1 877 6952 870 713 0 715 873 724 1017 83 3 10
16 .792156862745098 .819607843137255 .933333333333333 81 1 715 7160 445 713 877
 0 708 720 1018 83 3 1017 .792156862745098 .819607843137255 .933333333333333 81
 1 708 7159 445 706 876 0 457 715 1019 82 1 1018 94503189 81 1 876 6950 870 706
 0 708 1010 873 1020 81 1 457 7158 445 242 882 0 455 708 1021 82 1 1019 15261371
09 81 1 882 6912 870 242 0 457 456 879 1022 82 1 1021 999424308 81 1 456 6911 87
0 16 0 455 0 882 1023 83 3 1022 .792156862745098 .819607843137255 .9333333333333
33 83 3 1023 .792156862745098 .819607843137255 .933333333333333 83 3 1020 .79215
6862745098 .819607843137255 .933333333333333 83 3 1013 .792156862745098 .8196078
43137255 .933333333333333 83 3 1011 .792156862745098 .819607843137255 .933333333
333333 81 1 817 6946 870 743 0 813 1024 1005 1025 83 3 1008 .792156862745098 .81
9607843137255 .933333333333333 81 1 1024 6945 870 814 0 818 1026 817 1027 83 3 1
025 .792156862745098 .819607843137255 .933333333333333 81 1 818 7187 445 814 102
4 0 813 826 1028 81 1 1026 6944 870 474 0 826 1029 1024 1030 83 3 1027 .79215686
2745098 .819607843137255 .933333333333333 81 1 826 7188 445 474 1026 0 818 829 1
031 81 1 1029 6943 870 827 0 829 1032 1026 1033 83 3 1030 .792156862745098 .8196
07843137255 .933333333333333 81 1 829 7189 445 827 1029 0 826 833 1034 81 1 1032
 6942 870 830 0 833 1035 1029 1036 83 3 1033 .792156862745098 .819607843137255 .
933333333333333 81 1 833 7190 445 830 1032 0 829 836 1037 81 1 1035 6941 870 667
 0 836 1038 1032 1039 83 3 1036 .792156862745098 .819607843137255 .9333333333333
33 81 1 836 7191 445 667 1035 0 833 838 1040 81 1 1038 6940 870 642 0 838 1041 1
035 1042 83 3 1039 .792156862745098 .819607843137255 .933333333333333 81 1 838 7
192 445 642 1038 0 836 840 1043 81 1 1041 6939 870 679 0 840 1044 1038 1045 83 3
 1042 .792156862745098 .819607843137255 .933333333333333 81 1 840 7193 445 679 1
041 0 838 843 1046 81 1 1044 6938 870 841 0 843 1047 1041 1048 83 3 1045 .792156
862745098 .819607843137255 .933333333333333 81 1 843 7194 445 841 1044 0 840 847
 1049 81 1 1047 6937 870 844 0 847 1050 1044 1051 83 3 1048 .792156862745098 .81
9607843137255 .933333333333333 81 1 847 7195 445 844 1047 0 843 850 1052 81 1 10
50 6936 870 694 0 856 1053 1047 1054 83 3 1051 .792156862745098 .819607843137255
 .933333333333333 81 1 856 7199 445 694 1050 0 854 857 1055 81 1 1053 6935 870 6
56 0 857 859 1050 1056 83 3 1054 .792156862745098 .819607843137255 .933333333333
333 81 1 857 7200 445 656 1053 0 856 858 1057 81 1 859 6934 870 625 0 858 863 10
53 1058 83 3 1056 .792156862745098 .819607843137255 .933333333333333 83 3 1058 .
792156862745098 .819607843137255 .933333333333333 82 1 1057 90898682 82 1 1055 9
0702080 82 1 1052 623706312 82 1 1049 -1973747509 82 1 1046 -349568796 82 1 1043
 932446461 82 1 1040 1461256441 82 1 1037 240779482 82 1 1034 -1153498912 82 1 1
031 -13696706 82 1 1028 792985874 82 1 997 -303890200 82 1 994 985530621 82 1 99
1 986644732 82 1 988 -588381982 82 1 985 -173997852 82 1 982 555024616 82 1 979
 -1223753479 82 1 976 -1152057094 82 1 973 -1079181061 82 1 970 -1008860932 82 1
 967 -929169155 82 1 964 -843382530 83 3 956 .792156862745098 .819607843137255 .
933333333333333 15 896 6216 0 423 789 0 17 423 0 896 423 423 0 1059 420 0 0 +17
 1059 0 1060 1059 1059 0 423 420 0 0 -15 1060 6212 0 1059 786 0 83 3 891 .792156
862745098 .819607843137255 .933333333333333 83 3 884 .792156862745098 .819607843
137255 .933333333333333 83 3 878 .792156862745098 .819607843137255 .933333333333
333 83 3 872 .792156862745098 .819607843137255 .933333333333333 79 14 869 SWEntU
nchanged82 1 861 96600318 15 848 3056 0 346 844 1061 17 346 0 848 346 346 0 1062
 344 0 0 +15 1061 3057 0 1063 844 0 17 1063 0 1061 1063 1063 0 612 343 0 0 -17 6
12 0 481 612 612 0 1063 343 0 0 +15 481 3023 0 612 480 0 17 1062 0 779 1062 1062
 0 346 344 0 0 -15 779 3037 0 1062 687 686 15 845 3177 0 610 841 1064 17 610 0 8
45 610 610 0 1065 347 0 0 +15 1064 3178 0 350 841 0 17 350 0 1064 350 350 0 1066
 348 0 0 +17 1066 0 1067 1066 1066 0 350 348 0 0 -15 1067 3147 0 1066 242 239 17
 1065 0 622 1065 1065 0 610 347 0 0 -15 622 3116 0 1065 621 0 15 834 3857 0 370
 830 867 17 370 0 834 370 370 0 778 368 0 0 +17 778 0 773 778 778 0 370 368 0 0
 -15 831 4005 0 606 827 1068 17 606 0 831 606 606 0 1069 371 0 0 +15 1068 4006 0
 374 827 0 17 374 0 1068 374 374 0 1070 372 0 0 +17 1070 0 460 1070 1070 0 374 3
72 0 0 -15 460 3973 0 1070 242 1067 17 1069 0 784 1069 1069 0 606 371 0 0 -15 78
4 3955 0 1069 621 476 17 822 0 815 822 822 0 394 388 0 0 -17 394 0 820 394 394 0
 822 388 0 0 +15 820 5761 0 394 814 1071 15 1071 5762 0 1072 814 0 17 1072 0 107
1 1072 1072 0 387 385 0 0 -17 387 0 744 387 387 0 1072 385 0 0 +15 744 5715 0 38
7 739 1073 15 1073 158 0 1074 739 0 17 1074 0 1073 1074 1074 0 273 270 0 0 -17 2
73 0 1075 273 273 0 1074 270 0 0 +15 1075 163 0 273 735 0 82 1 819 787939602 17
 208 0 810 418 211 206 263 419 0 811 +16 419 6064 0 ?208 415 416 413 416 416 1 8
2 1 800 93454616 15 794 461 0 1076 790 806 17 1076 0 794 1076 1076 0 294 292 0 0
 -17 294 0 791 294 294 0 1076 292 0 0 +15 791 476 0 294 786 1060 82 1 777 152109
0837 82 1 772 -613744384 15 267 1463 0 266 745 0 15 740 188 0 1077 735 1075 17 1
077 0 740 1077 1077 0 276 274 0 0 -17 276 0 736 276 276 0 1077 274 0 0 +15 736 2
03 0 276 709 943 17 730 0 722 730 730 0 282 280 0 0 -17 282 0 728 282 282 0 730
 280 0 0 +15 728 293 0 282 721 945 82 1 726 -1986133901 17 251 0 686 249 361 183
 243 326 0 240 +17 361 0 686 251 137 186 658 359 0 243 +17 243 0 239 657 240 186
 251 326 0 0 -17 657 0 239 556 243 114 188 319 0 0 -17 556 0 239 649 657 120 116
 554 0 651 +17 188 0 655 658 559 186 657 319 0 361 +17 658 0 655 572 188 135 361
 359 0 0 -17 649 0 239 86 556 81 122 333 0 0 -17 86 0 239 95 649 84 83 521 0 643
 -17 95 0 239 98 86 93 641 357 0 533 +17 643 0 646 83 89 84 528 526 0 641 -17 98
 0 239 636 95 96 533 531 0 637 -17 636 0 239 545 98 102 332 330 0 0 -17 545 0 23
9 616 636 111 104 543 0 626 +17 137 0 686 361 666 135 131 565 0 659 +17 666 0 68
6 137 669 129 173 365 0 0 -17 659 0 663 131 134 135 572 570 0 658 -17 669 0 686
 666 164 171 598 596 0 668 -17 164 0 686 669 152 162 678 351 0 598 +17 51 0 686
 268 45 49 703 498 0 266 +17 703 0 700 704 269 43 51 498 0 403 -17 42 0 267 176
 266 40 269 399 0 493 -82 1 458 -1927806658 17 288 0 443 288 288 0 1078 286 0 0
 +17 1078 0 452 1078 1078 0 288 286 0 0 -15 452 369 0 1078 442 940 82 1 448 9371
6791 19 17 100 0 1 0 9 5 S0 74 4 CI16 index_map_offset0 0 1 dCCZ20 15 10 0 0 920
 1079 1080 1081 1082 1083 1084 13 933 2 0 0 0 0 0 0 0 0 0 0 81 5 1079 147 1085 1
 0 1080 0 0 1086 0 0 0 0 81 2 1080 6449 1087 1 1079 1081 0 0 0 1088 81 2 1081 64
54 1089 1 1080 1082 0 0 0 1090 81 1 1082 6613 1091 1 1081 1083 0 0 1092 81 2 108
3 6673 1093 1 1082 1084 0 0 1094 0 81 2 1084 6905 1095 1 1083 13 0 0 0 1096 81 2
 13 6908 1097 1 1084 2 0 0 0 0 80 2 1097 1098 1099 9000 0 0 0 0 3 5 0 0 0 FFTFFF
FFFFFFFF9 1 79 16 1099 BODY_RECIPE_200180 2 1095 1100 1101 9000 0 0 0 0 3 5 0 0
 0 FFTFFFFFFFFFFF9 1 82 1 1096 1 79 24 1101 BODY_IN_LIGHTWEIGHT_PERM80 2 1093 11
02 1103 8004 0 0 0 0 3 5 0 0 0 FFTFFFFFFFFFFF2 3 83 1 1094 1 79 16 1103 SDL/TYSA
_DENSITY80 1 1091 1104 1105 9000 1 1 1 1 1 1 1 1 0 FFTFFFFFFFFFFF1 82 1 1092 112
4 79 10 1105 BODY_MATCH80 2 1089 1106 1107 9000 0 0 0 0 3 5 0 0 0 FFTFFFFFFFFFFF
9 1 82 1 1090 476 79 30 1107 LAST_BODY_MODIFYING_FEATURE_ID80 2 1087 1108 1109 9
000 0 0 0 0 3 5 0 0 0 FFTFFFFFFFFFFF9 1 82 1 1088 263 79 19 1109 ENT_TIME_STAMP_
200180 5 1085 1110 1111 9000 0 0 0 0 3 6 0 0 0 FFTTTTTTFTTFTT2 2 2 2 2 83 1 1086
 1 79 19 1111 BODY_SCALING_FACTOR80 2 12 1112 1113 9000 0 0 0 0 3 5 0 0 0 FFTFFF
FFFFFFFF9 1 82 1 14 150 79 12 1113 ATOM_ID_20011 0 
